<svg xmlns="http://www.w3.org/2000/svg" width="37" height="37" viewBox="0 0 37 37">
  <g id="Group_34787" data-name="Group 34787" transform="translate(-460 -112)">
    <g id="Rectangle_5" data-name="Rectangle 5" transform="translate(460 112)" fill="#fff" stroke="#d2f8ee" stroke-linecap="round" stroke-linejoin="round" stroke-width="1">
      <rect width="37" height="37" rx="5" stroke="none"/>
      <rect x="0.5" y="0.5" width="36" height="36" rx="4.5" fill="none"/>
    </g>
    <path id="export-file" d="M22.052,16.48a1.223,1.223,0,0,0-.223-.351L18.639,12.94a1.067,1.067,0,0,0-1.51,1.51l1.382,1.371H12.568a1.063,1.063,0,1,0,0,2.126h5.943l-1.382,1.371a1.067,1.067,0,1,0,1.51,1.51l3.189-3.189a.989.989,0,0,0,.223-.351,1.063,1.063,0,0,0,0-.808Zm-7.357,4.657H6.189a1.063,1.063,0,0,1-1.063-1.063V5.189A1.063,1.063,0,0,1,6.189,4.126h5.316V7.316a3.189,3.189,0,0,0,3.189,3.189h4.253A1.07,1.07,0,0,0,19.7,8.687L13.323,2.308a1.138,1.138,0,0,0-.3-.2h-.1L12.632,2H6.189A3.189,3.189,0,0,0,3,5.189V20.073a3.189,3.189,0,0,0,3.189,3.189h8.505a1.063,1.063,0,1,0,0-2.126ZM13.631,5.625l2.754,2.754h-1.69a1.063,1.063,0,0,1-1.063-1.063Z" transform="translate(465.935 117.869)" fill="#0077FF"/>
  </g>
</svg>
