<svg xmlns="http://www.w3.org/2000/svg" width="30" height="30" viewBox="0 0 30 30">
  <g id="Group_72257" data-name="Group 72257" transform="translate(689 10540)">
    <g id="Rectangle_28077" data-name="Rectangle 28077" transform="translate(-689 -10540)" fill="#f8f8f8" stroke="#dee1e5" stroke-linecap="round" stroke-linejoin="round" stroke-width="0.5">
      <rect width="30" height="30" rx="5" stroke="none"/>
      <rect x="0.25" y="0.25" width="29.5" height="29.5" rx="4.75" fill="none"/>
    </g>
    <path id="view" d="M18.241,22.119H8.8a1.133,1.133,0,0,1-1.137-1.137V18.137A1.133,1.133,0,0,1,8.8,17H18.22a1.133,1.133,0,0,1,1.137,1.137v2.844A1.1,1.1,0,0,1,18.241,22.119ZM9.352,20.433h8.341V18.685H9.352v1.748Zm8.889,8.784H8.8A1.133,1.133,0,0,1,7.667,28.08V25.236A1.133,1.133,0,0,1,8.8,24.1H18.22a1.133,1.133,0,0,1,1.137,1.137V28.08A1.1,1.1,0,0,1,18.241,29.217ZM9.352,27.532h8.341V25.784H9.352v1.748Zm-4.36-5.413H1.18A1.178,1.178,0,0,1,0,20.939V18.18A1.178,1.178,0,0,1,1.18,17H4.992a1.178,1.178,0,0,1,1.18,1.18v2.78A1.173,1.173,0,0,1,4.992,22.119ZM1.685,20.433h2.8V18.685h-2.8Zm3.307,8.784H1.18A1.178,1.178,0,0,1,0,28.038v-2.78a1.178,1.178,0,0,1,1.18-1.18H4.992a1.178,1.178,0,0,1,1.18,1.18v2.78A1.178,1.178,0,0,1,4.992,29.217ZM1.685,27.532h2.8V25.784h-2.8Z" transform="translate(-683.68 -10548.109)" fill="#515867"/>
  </g>
</svg>
